<svg width="279" height="268" xmlns="http://www.w3.org/2000/svg"><g fill-rule="nonzero" fill="none"><path d="M134 74c33.137085 0 60 26.862915 60 60v74c0 33.137085-26.862915 60-60 60H60c-33.137085 0-60-26.862915-60-60v-74c0-33.137085 26.862915-60 60-60h74zm0 20H60c-22.09139 0-40 17.90861-40 40v74c0 22.09139 17.90861 40 40 40h74c22.09139 0 40-17.90861 40-40v-74c0-22.09139-17.90861-40-40-40z" fill="#FFF"/><path d="M219 0c33.137085 0 60 26.862915 60 60v74c0 33.137085-26.862915 60-60 60h-74c-33.137085 0-60-26.862915-60-60V60c0-33.137085 26.862915-60 60-60h74zm0 20h-74c-22.09139 0-40 17.90861-40 40v74c0 22.09139 17.90861 40 40 40h74c22.09139 0 40-17.90861 40-40V60c0-22.09139-17.90861-40-40-40z" fill="#CFF32F"/></g></svg>