<?xml version="1.0" encoding="UTF-8"?>
<svg width="32px" height="5px" viewBox="0 0 32 5" version="1.1" xmlns="http://www.w3.org/2000/svg" xmlns:xlink="http://www.w3.org/1999/xlink">
    <title>Shape</title>
    <g id="Desktop-App" stroke="none" stroke-width="1" fill="none" fill-rule="evenodd" opacity="0.5">
        <g id="05.Messages" transform="translate(-1367.000000, -133.000000)" fill="#000000" fill-rule="nonzero">
            <g id="more_vert_FILL0_wght400_GRAD0_opsz48" transform="translate(1383.325000, 135.500000) rotate(90.000000) translate(-1383.325000, -135.500000) translate(1381.000000, 120.000000)">
                <path d="M2.325,31 C1.67916667,31 1.13020833,30.7739583 0.678125,30.321875 C0.226041667,29.8697917 0,29.3208333 0,28.675 C0,28.0291667 0.226041667,27.4802083 0.678125,27.028125 C1.13020833,26.5760417 1.67916667,26.35 2.325,26.35 C2.97083333,26.35 3.51979167,26.5760417 3.971875,27.028125 C4.42395833,27.4802083 4.65,28.0291667 4.65,28.675 C4.65,29.3208333 4.42395833,29.8697917 3.971875,30.321875 C3.51979167,30.7739583 2.97083333,31 2.325,31 Z M2.325,17.825 C1.67916667,17.825 1.13020833,17.5989583 0.678125,17.146875 C0.226041667,16.6947917 0,16.1458333 0,15.5 C0,14.8541667 0.226041667,14.3052083 0.678125,13.853125 C1.13020833,13.4010417 1.67916667,13.175 2.325,13.175 C2.97083333,13.175 3.51979167,13.4010417 3.971875,13.853125 C4.42395833,14.3052083 4.65,14.8541667 4.65,15.5 C4.65,16.1458333 4.42395833,16.6947917 3.971875,17.146875 C3.51979167,17.5989583 2.97083333,17.825 2.325,17.825 Z M2.325,4.65 C1.67916667,4.65 1.13020833,4.42395833 0.678125,3.971875 C0.226041667,3.51979167 0,2.97083333 0,2.325 C0,1.67916667 0.226041667,1.13020833 0.678125,0.678125 C1.13020833,0.226041667 1.67916667,0 2.325,0 C2.97083333,0 3.51979167,0.226041667 3.971875,0.678125 C4.42395833,1.13020833 4.65,1.67916667 4.65,2.325 C4.65,2.97083333 4.42395833,3.51979167 3.971875,3.971875 C3.51979167,4.42395833 2.97083333,4.65 2.325,4.65 L2.325,4.65 Z" id="Shape"></path>
            </g>
        </g>
    </g>
</svg>